<svg width="183" height="102" viewBox="0 0 183 102" fill="none" xmlns="http://www.w3.org/2000/svg">
<path fill-rule="evenodd" clip-rule="evenodd" d="M48.5126 9.2816V7.20316L42.767 9.33873H42.7561V11.4716H42.767L48.5126 13.6072V11.526L45.5664 10.3997L48.5126 9.27888V9.2816Z" fill="#F7DD43"/>
<path fill-rule="evenodd" clip-rule="evenodd" d="M81.7922 13.5037V11.4253L84.7358 10.3072L81.7922 9.18905V7.1106L87.5297 9.24618H87.5433V11.3817H87.5297L81.7922 13.5064V13.5037ZM79.3275 4.16977L75.9541 15H77.9564L81.3298 4.16977H79.3275Z" fill="#F7DD43"/>
<path fill-rule="evenodd" clip-rule="evenodd" d="M56.9543 6.91747C57.5256 7.54317 57.8249 8.3702 57.7895 9.21627V13.8302H55.7872V9.64066C55.8117 9.17274 55.6621 8.7157 55.3683 8.35116C55.0908 8.02742 54.68 7.84787 54.2529 7.86691C52.9987 7.86691 52.3703 8.73746 52.3703 10.4758V13.8302H50.368V6.25639H52.3703V6.93923C53.0069 6.32168 53.8693 5.99251 54.7562 6.03059C55.5832 5.99523 56.383 6.31896 56.9543 6.91747Z" fill="#F7DD43"/>
<path fill-rule="evenodd" clip-rule="evenodd" d="M60.3413 3V13.8302H62.3436V3H60.3413Z" fill="#F7DD43"/>
<path fill-rule="evenodd" clip-rule="evenodd" d="M73.6661 13.8302H71.9958L70.358 9.36862L68.704 13.8302H67.0336L64.2261 6.2428H66.3671L67.945 10.7806L69.5718 6.2428H71.1361L72.7629 10.7942L74.3408 6.2428H76.4818L73.6716 13.8302H73.6661Z" fill="#F7DD43"/>
<path d="M97.0796 17.9981C95.1533 17.9981 93.1295 17.6331 91.5433 16.754V1.24411C93.1046 0.389878 95.1284 2.85548e-05 97.0796 2.85548e-05C99.0307 2.85548e-05 101.007 0.365035 102.566 1.24411V7.19505H98.639V3.14558C98.1765 2.95066 97.6147 2.87804 97.0547 2.87804C96.4948 2.87804 95.9807 2.95066 95.4934 3.14558V14.8525C95.9559 15.0475 96.4929 15.1201 97.0547 15.1201C97.6166 15.1201 98.1517 15.0475 98.639 14.8525V10.805H102.566V16.7559C101.03 17.6101 99.0059 17.9752 97.0796 18V17.9981Z" fill="#F7DD43"/>
<path d="M109.931 17.9981C107.858 17.9981 105.859 17.5585 104.273 16.6565V1.3167C105.834 0.439536 107.835 0 109.931 0C112.028 0 113.979 0.414693 115.54 1.3167V16.6565C114.004 17.5585 111.98 17.9732 109.931 17.9981ZM111.615 3.19524C111.152 3.00031 110.591 2.90285 109.908 2.90285C109.226 2.90285 108.689 3.00031 108.225 3.19524V14.7799C108.687 14.9997 109.249 15.0971 109.908 15.0971C110.568 15.0971 111.128 14.9997 111.615 14.7799V3.19524Z" fill="#F7DD43"/>
<path d="M122.393 11.4127H121.344V17.7783H117.369V0.219779H122.393C124.784 0.219779 126.588 0.707092 128.002 1.70656V9.92589C126.613 10.9024 124.782 11.4127 122.393 11.4127ZM124.052 3.24303C123.687 2.97548 123.198 2.85318 122.368 2.85318H121.294V8.77927H122.368C123.173 8.77927 123.66 8.65697 124.052 8.41427V3.24303Z" fill="#F7DD43"/>
<path d="M136.317 17.7783V11.4127H133.391V17.7783H129.441V1.29185C130.88 0.437625 132.904 0 134.855 0C136.806 0 138.805 0.439537 140.244 1.29185V17.7783H136.317ZM136.317 3.04809C135.902 2.85316 135.39 2.7557 134.853 2.7557C134.316 2.7557 133.804 2.85316 133.389 3.04809V8.63211H136.315V3.04809H136.317Z" fill="#F7DD43"/>
<path d="M14.7129 47.9248H19.0928C19.0049 49.3604 18.6094 50.6348 17.9062 51.748C17.2129 52.8613 16.2412 53.7305 14.9912 54.3555C13.751 54.9805 12.2568 55.293 10.5088 55.293C9.1416 55.293 7.91602 55.0586 6.83203 54.5898C5.74805 54.1113 4.82031 53.4277 4.04883 52.5391C3.28711 51.6504 2.70605 50.5762 2.30566 49.3164C1.90527 48.0566 1.70508 46.6455 1.70508 45.083V43.6035C1.70508 42.041 1.91016 40.6299 2.32031 39.3701C2.74023 38.1006 3.33594 37.0215 4.10742 36.1328C4.88867 35.2441 5.82129 34.5605 6.90527 34.082C7.98926 33.6035 9.2002 33.3643 10.5381 33.3643C12.3154 33.3643 13.8145 33.6865 15.0352 34.3311C16.2656 34.9756 17.2178 35.8643 17.8916 36.9971C18.5752 38.1299 18.9854 39.4189 19.1221 40.8643H14.7275C14.6787 40.0049 14.5078 39.2773 14.2148 38.6816C13.9219 38.0762 13.4775 37.6221 12.8818 37.3193C12.2959 37.0068 11.5146 36.8506 10.5381 36.8506C9.80566 36.8506 9.16602 36.9873 8.61914 37.2607C8.07227 37.5342 7.61328 37.9492 7.24219 38.5059C6.87109 39.0625 6.59277 39.7656 6.40723 40.6152C6.23145 41.4551 6.14355 42.4414 6.14355 43.5742V45.083C6.14355 46.1865 6.22656 47.1582 6.39258 47.998C6.55859 48.8281 6.8125 49.5312 7.1543 50.1074C7.50586 50.6738 7.95508 51.1035 8.50195 51.3965C9.05859 51.6797 9.72754 51.8213 10.5088 51.8213C11.4268 51.8213 12.1836 51.6748 12.7793 51.3818C13.375 51.0889 13.8291 50.6543 14.1416 50.0781C14.4639 49.502 14.6543 48.7842 14.7129 47.9248ZM30.6504 37.3193L24.8496 55H20.1768L28.1016 33.6719H31.0752L30.6504 37.3193ZM35.4697 55L29.6543 37.3193L29.1855 33.6719H32.1885L40.1572 55H35.4697ZM35.2061 47.0605V50.5029H23.9414V47.0605H35.2061ZM55.8457 51.5723V55H45.1084V51.5723H55.8457ZM46.5293 33.6719V55H42.1348V33.6719H46.5293ZM72.6768 51.5723V55H61.3242V51.5723H72.6768ZM62.7598 33.6719V55H58.3652V33.6719H62.7598ZM71.1973 42.3584V45.6982H61.3242V42.3584H71.1973ZM72.6621 33.6719V37.1143H61.3242V33.6719H72.6621ZM92.5986 33.6719V55H88.2041L79.6348 40.7031V55H75.2402V33.6719H79.6348L88.2188 47.9834V33.6719H92.5986ZM102.97 55H98.3262L98.3555 51.5723H102.97C104.122 51.5723 105.094 51.3135 105.885 50.7959C106.676 50.2686 107.271 49.502 107.672 48.4961C108.082 47.4902 108.287 46.2744 108.287 44.8486V43.8086C108.287 42.7148 108.17 41.7529 107.936 40.9229C107.711 40.0928 107.374 39.3945 106.925 38.8281C106.476 38.2617 105.924 37.8369 105.27 37.5537C104.615 37.2607 103.863 37.1143 103.014 37.1143H98.2383V33.6719H103.014C104.439 33.6719 105.743 33.916 106.925 34.4043C108.116 34.8828 109.146 35.5713 110.016 36.4697C110.885 37.3682 111.554 38.4424 112.022 39.6924C112.501 40.9326 112.74 42.3145 112.74 43.8379V44.8486C112.74 46.3623 112.501 47.7441 112.022 48.9941C111.554 50.2441 110.885 51.3184 110.016 52.2168C109.156 53.1055 108.126 53.7939 106.925 54.2822C105.733 54.7607 104.415 55 102.97 55ZM100.816 33.6719V55H96.4219V33.6719H100.816ZM124.283 37.3193L118.482 55H113.81L121.734 33.6719H124.708L124.283 37.3193ZM129.103 55L123.287 37.3193L122.818 33.6719H125.821L133.79 55H129.103ZM128.839 47.0605V50.5029H117.574V47.0605H128.839ZM121.808 32.4707L124.679 27.959H129.264L125.235 32.4707H121.808ZM135.768 33.6719H143.722C145.353 33.6719 146.754 33.916 147.926 34.4043C149.107 34.8926 150.016 35.6152 150.65 36.5723C151.285 37.5293 151.603 38.7061 151.603 40.1025C151.603 41.2451 151.407 42.2266 151.017 43.0469C150.636 43.8574 150.094 44.5361 149.391 45.083C148.697 45.6201 147.882 46.0498 146.944 46.3721L145.553 47.1045H138.639L138.609 43.6768H143.751C144.522 43.6768 145.162 43.54 145.67 43.2666C146.178 42.9932 146.559 42.6123 146.812 42.124C147.076 41.6357 147.208 41.0693 147.208 40.4248C147.208 39.7412 147.081 39.1504 146.827 38.6523C146.573 38.1543 146.188 37.7734 145.67 37.5098C145.152 37.2461 144.503 37.1143 143.722 37.1143H140.162V55H135.768V33.6719ZM147.691 55L142.828 45.4932L147.472 45.4639L152.394 54.7949V55H147.691ZM159.659 33.6719V55H155.279V33.6719H159.659ZM181.295 43.8379V44.8486C181.295 46.4697 181.075 47.9248 180.636 49.2139C180.196 50.5029 179.576 51.6016 178.775 52.5098C177.975 53.4082 177.018 54.0967 175.904 54.5752C174.801 55.0537 173.575 55.293 172.228 55.293C170.89 55.293 169.664 55.0537 168.551 54.5752C167.447 54.0967 166.49 53.4082 165.68 52.5098C164.869 51.6016 164.239 50.5029 163.79 49.2139C163.351 47.9248 163.131 46.4697 163.131 44.8486V43.8379C163.131 42.207 163.351 40.752 163.79 39.4727C164.229 38.1836 164.85 37.085 165.65 36.1768C166.461 35.2686 167.418 34.5752 168.521 34.0967C169.635 33.6182 170.86 33.3789 172.198 33.3789C173.546 33.3789 174.771 33.6182 175.875 34.0967C176.988 34.5752 177.945 35.2686 178.746 36.1768C179.557 37.085 180.182 38.1836 180.621 39.4727C181.07 40.752 181.295 42.207 181.295 43.8379ZM176.856 44.8486V43.8086C176.856 42.6758 176.754 41.6797 176.549 40.8203C176.344 39.9609 176.041 39.2383 175.641 38.6523C175.24 38.0664 174.752 37.627 174.176 37.334C173.6 37.0312 172.94 36.8799 172.198 36.8799C171.456 36.8799 170.797 37.0312 170.221 37.334C169.654 37.627 169.171 38.0664 168.771 38.6523C168.38 39.2383 168.082 39.9609 167.877 40.8203C167.672 41.6797 167.569 42.6758 167.569 43.8086V44.8486C167.569 45.9717 167.672 46.9678 167.877 47.8369C168.082 48.6963 168.385 49.4238 168.785 50.0195C169.186 50.6055 169.674 51.0498 170.25 51.3525C170.826 51.6553 171.485 51.8066 172.228 51.8066C172.97 51.8066 173.629 51.6553 174.205 51.3525C174.781 51.0498 175.265 50.6055 175.655 50.0195C176.046 49.4238 176.344 48.6963 176.549 47.8369C176.754 46.9678 176.856 45.9717 176.856 44.8486ZM44.8594 93H40.2158L40.2451 89.5723H44.8594C46.0117 89.5723 46.9834 89.3135 47.7744 88.7959C48.5654 88.2686 49.1611 87.502 49.5615 86.4961C49.9717 85.4902 50.1768 84.2744 50.1768 82.8486V81.8086C50.1768 80.7148 50.0596 79.7529 49.8252 78.9229C49.6006 78.0928 49.2637 77.3945 48.8145 76.8281C48.3652 76.2617 47.8135 75.8369 47.1592 75.5537C46.5049 75.2607 45.7529 75.1143 44.9033 75.1143H40.1279V71.6719H44.9033C46.3291 71.6719 47.6328 71.916 48.8145 72.4043C50.0059 72.8828 51.0361 73.5713 51.9053 74.4697C52.7744 75.3682 53.4434 76.4424 53.9121 77.6924C54.3906 78.9326 54.6299 80.3145 54.6299 81.8379V82.8486C54.6299 84.3623 54.3906 85.7441 53.9121 86.9941C53.4434 88.2441 52.7744 89.3184 51.9053 90.2168C51.0459 91.1055 50.0156 91.7939 48.8145 92.2822C47.623 92.7607 46.3047 93 44.8594 93ZM42.7061 71.6719V93H38.3115V71.6719H42.7061ZM75.3428 81.8379V82.8486C75.3428 84.4697 75.123 85.9248 74.6836 87.2139C74.2441 88.5029 73.624 89.6016 72.8232 90.5098C72.0225 91.4082 71.0654 92.0967 69.9521 92.5752C68.8486 93.0537 67.623 93.293 66.2754 93.293C64.9375 93.293 63.7119 93.0537 62.5986 92.5752C61.4951 92.0967 60.5381 91.4082 59.7275 90.5098C58.917 89.6016 58.2871 88.5029 57.8379 87.2139C57.3984 85.9248 57.1787 84.4697 57.1787 82.8486V81.8379C57.1787 80.207 57.3984 78.752 57.8379 77.4727C58.2773 76.1836 58.8975 75.085 59.6982 74.1768C60.5088 73.2686 61.4658 72.5752 62.5693 72.0967C63.6826 71.6182 64.9082 71.3789 66.2461 71.3789C67.5938 71.3789 68.8193 71.6182 69.9229 72.0967C71.0361 72.5752 71.9932 73.2686 72.7939 74.1768C73.6045 75.085 74.2295 76.1836 74.6689 77.4727C75.1182 78.752 75.3428 80.207 75.3428 81.8379ZM70.9043 82.8486V81.8086C70.9043 80.6758 70.8018 79.6797 70.5967 78.8203C70.3916 77.9609 70.0889 77.2383 69.6885 76.6523C69.2881 76.0664 68.7998 75.627 68.2236 75.334C67.6475 75.0312 66.9883 74.8799 66.2461 74.8799C65.5039 74.8799 64.8447 75.0312 64.2686 75.334C63.7021 75.627 63.2188 76.0664 62.8184 76.6523C62.4277 77.2383 62.1299 77.9609 61.9248 78.8203C61.7197 79.6797 61.6172 80.6758 61.6172 81.8086V82.8486C61.6172 83.9717 61.7197 84.9678 61.9248 85.8369C62.1299 86.6963 62.4326 87.4238 62.833 88.0195C63.2334 88.6055 63.7217 89.0498 64.2979 89.3525C64.874 89.6553 65.5332 89.8066 66.2754 89.8066C67.0176 89.8066 67.6768 89.6553 68.2529 89.3525C68.8291 89.0498 69.3125 88.6055 69.7031 88.0195C70.0938 87.4238 70.3916 86.6963 70.5967 85.8369C70.8018 84.9678 70.9043 83.9717 70.9043 82.8486ZM99.6885 89.5723V93H88.9512V89.5723H99.6885ZM90.3721 71.6719V93H85.9775V71.6719H90.3721ZM113.487 71.6719H117.867V85.7637C117.867 87.4043 117.516 88.7861 116.812 89.9092C116.119 91.0322 115.157 91.877 113.927 92.4434C112.706 93.0098 111.3 93.293 109.708 93.293C108.116 93.293 106.7 93.0098 105.46 92.4434C104.229 91.877 103.263 91.0322 102.56 89.9092C101.866 88.7861 101.52 87.4043 101.52 85.7637V71.6719H105.914V85.7637C105.914 86.7207 106.065 87.502 106.368 88.1074C106.671 88.7129 107.105 89.1572 107.672 89.4404C108.248 89.7236 108.927 89.8652 109.708 89.8652C110.509 89.8652 111.188 89.7236 111.744 89.4404C112.311 89.1572 112.74 88.7129 113.033 88.1074C113.336 87.502 113.487 86.7207 113.487 85.7637V71.6719ZM126.158 71.6719V93H121.778V71.6719H126.158ZM145.699 89.5723V93H130.582V89.5723H145.699ZM145.479 74.1182L132.53 93H129.439V90.4805L142.491 71.6719H145.479V74.1182ZM143.971 71.6719V75.1143H129.454V71.6719H143.971Z" fill="url(#paint0_linear_122_251)"/>
<defs>
<linearGradient id="paint0_linear_122_251" x1="91.5" y1="26" x2="91.5" y2="102" gradientUnits="userSpaceOnUse">
<stop stop-color="white"/>
<stop offset="1" stop-color="#D9D9D9" stop-opacity="0.8"/>
</linearGradient>
</defs>
</svg>
